<svg class="w-6 h-6" width="24" height="24" viewBox="0 0 24 24" fill="none" xmlns="http://www.w3.org/2000/svg"><path d="M1 12C1 11.4814 1.0857 10.9662 1.25391 10.4756L1.2998 10.3652L2.69922 7.46484L2.74219 7.38574L2.91309 7.12988C3.35044 6.53872 4.06271 6 5 6H12C12.8763 6 13.6091 6.33124 14.1865 6.74023L14.4248 6.91895L14.5068 6.99316C14.967 7.45328 15.525 8.03604 15.9639 8.5C16.184 8.73276 16.3758 8.93765 16.5127 9.08398C16.515 9.08645 16.5173 9.08936 16.5195 9.0918C16.5658 9.10227 16.6166 9.11437 16.6719 9.12695C16.9551 9.19146 17.3516 9.28267 17.8047 9.38965C18.7077 9.60285 19.8481 9.88132 20.7676 10.1367H20.7666C21.9669 10.4489 23 11.6157 23 13V16C23 16.5272 22.8194 17.0439 22.4316 17.4316C22.0439 17.8194 21.5272 18 21 18H19C18.4477 18 18 17.5523 18 17C18 16.4477 18.4477 16 19 16H21V13C21 12.6444 20.7298 12.2734 20.4014 12.1211L20.2578 12.0703C20.2494 12.0682 20.2407 12.0658 20.2324 12.0635C19.3519 11.8189 18.2418 11.5477 17.3447 11.3359C16.898 11.2305 16.5067 11.1398 16.2275 11.0762C16.0882 11.0444 15.9768 11.0191 15.9004 11.002C15.8621 10.9934 15.8323 10.9869 15.8125 10.9824C15.8027 10.9802 15.795 10.9786 15.79 10.9775C15.788 10.9771 15.7863 10.9768 15.7852 10.9766H15.7832C15.6347 10.9436 15.4961 10.877 15.3779 10.7832L15.2676 10.6807H15.2666V10.6797C15.266 10.6791 15.2649 10.678 15.2637 10.6768C15.2613 10.6742 15.2577 10.6702 15.2529 10.665C15.2434 10.6548 15.2292 10.6398 15.2109 10.6201C15.174 10.5805 15.1202 10.5223 15.0527 10.4502C14.9178 10.3059 14.7279 10.1046 14.5107 9.875C14.0878 9.42787 13.5652 8.88105 13.1328 8.44727C12.7562 8.15585 12.384 8 12 8H5C4.87563 8 4.66326 8.08982 4.47656 8.38379L3.13184 11.1689C3.04497 11.4374 3 11.7177 3 12V16H5C5.55228 16 6 16.4477 6 17C6 17.5523 5.55228 18 5 18H3C2.47275 18 1.95614 17.8194 1.56836 17.4316C1.18058 17.0439 1 16.5272 1 16V12Z" fill="currentColor" style="fill-opacity:1;"/><path d="M8 17C8 16.4477 7.55228 16 7 16C6.44772 16 6 16.4477 6 17C6 17.5523 6.44772 18 7 18C7.55228 18 8 17.5523 8 17ZM10 17C10 18.6569 8.65685 20 7 20C5.34315 20 4 18.6569 4 17C4 15.3431 5.34315 14 7 14C8.65685 14 10 15.3431 10 17Z" fill="currentColor" style="fill-opacity:1;"/><path d="M15 16C15.5523 16 16 16.4477 16 17C16 17.5523 15.5523 18 15 18H9C8.44772 18 8 17.5523 8 17C8 16.4477 8.44772 16 9 16H15Z" fill="currentColor" style="fill-opacity:1;"/><path d="M18 17C18 16.4477 17.5523 16 17 16C16.4477 16 16 16.4477 16 17C16 17.5523 16.4477 18 17 18C17.5523 18 18 17.5523 18 17ZM20 17C20 18.6569 18.6569 20 17 20C15.3431 20 14 18.6569 14 17C14 15.3431 15.3431 14 17 14C18.6569 14 20 15.3431 20 17Z" fill="currentColor" style="fill-opacity:1;"/></svg>