<svg class="w-6 h-6" width="24" height="24" viewBox="0 0 24 24" fill="none" xmlns="http://www.w3.org/2000/svg"><path d="M20.0003 10C20.0003 7.20943 19.4411 5.36987 18.7395 3.7813C18.0041 4.4972 17.2149 5.04019 16.1839 5.4854C14.9109 6.03502 13.2895 6.42663 11.0081 6.88188L9.98952 7.08208C9.98251 7.08343 9.97508 7.08478 9.96804 7.08598C8.48464 7.33951 7.15076 8.14115 6.23073 9.33208C5.31072 10.5231 4.87191 12.0163 5.00124 13.5157C5.13069 15.0151 5.81842 16.412 6.92897 17.4278C8.0396 18.4436 9.49224 19.0046 10.9973 19H11.0003L11.4378 18.9883C15.9511 18.7451 20.0003 14.7759 20.0003 10ZM22.0003 10C22.0003 16.0695 16.7555 20.9978 11.0022 20.9991L11.0032 21L11.0012 20.9991L11.0003 21V20.9991C8.99446 21.0045 7.05953 20.2571 5.57936 18.9034C4.09869 17.5491 3.18075 15.6877 3.00808 13.6885C2.83547 11.6892 3.42091 9.69756 4.64772 8.10942C5.87018 6.52692 7.6409 5.46012 9.61061 5.11821L10.6331 4.91802C12.8959 4.46554 14.3232 4.11045 15.3909 3.64946C16.5417 3.15255 17.2945 2.5221 18.2219 1.37212L18.3069 1.27934C18.5185 1.07576 18.8115 0.97394 19.1077 1.00591C19.4459 1.04254 19.7427 1.2485 19.8948 1.55278L20.2815 2.34282C21.1783 4.22895 22.0003 6.46388 22.0003 10Z" fill="currentColor" style="fill-opacity:1;"/><path d="M1 21C1 17.5148 3.19522 14.7508 6.88574 14.0195L7.29492 13.9277C8.25413 13.6885 9.23187 13.2793 10.0996 12.8135C11.0989 12.277 11.8844 11.7015 12.293 11.293L12.3691 11.2246C12.7619 10.9043 13.3409 10.9269 13.707 11.293C14.0731 11.6591 14.0957 12.2381 13.7754 12.6309L13.707 12.707C13.1157 13.2984 12.1513 13.9827 11.0459 14.5762C10.0717 15.0992 8.93519 15.58 7.77344 15.8692L7.27441 15.9805C4.50494 16.5292 3 18.4852 3 21C3 21.5523 2.55228 22 2 22C1.44772 22 1 21.5523 1 21Z" fill="currentColor" style="fill-opacity:1;"/></svg>